<?xml version="1.0" encoding="UTF-8" standalone="no"?>
<svg
   inkscape:version="1.0 (4035a4f, 2020-05-01)"
   sodipodi:docname="Qwerty.svg"
   version="1.1"
   width="84.893753"
   height="48.938747"
   viewBox="0 0 85.000003 48.811634"
   id="svg2"
   xml:space="preserve"
   style="fill-rule:evenodd"
   xmlns:inkscape="http://www.inkscape.org/namespaces/inkscape"
   xmlns:sodipodi="http://sodipodi.sourceforge.net/DTD/sodipodi-0.dtd"
   xmlns="http://www.w3.org/2000/svg"
   xmlns:svg="http://www.w3.org/2000/svg"
   xmlns:rdf="http://www.w3.org/1999/02/22-rdf-syntax-ns#"
   xmlns:cc="http://creativecommons.org/ns#"
   xmlns:dc="http://purl.org/dc/elements/1.1/"><sodipodi:namedview
     inkscape:current-layer="svg2"
     inkscape:window-maximized="0"
     inkscape:window-y="23"
     inkscape:window-x="0"
     inkscape:cy="238.81465"
     inkscape:cx="252.14888"
     inkscape:zoom="0.82764342"
     showgrid="false"
     id="namedview492"
     inkscape:window-height="662"
     inkscape:window-width="1185"
     inkscape:pageshadow="2"
     inkscape:pageopacity="0"
     guidetolerance="10"
     gridtolerance="10"
     objecttolerance="10"
     borderopacity="1"
     bordercolor="#666666"
     pagecolor="#ffffff"
     inkscape:showpageshadow="2"
     inkscape:pagecheckerboard="0"
     inkscape:deskcolor="#d1d1d1"><inkscape:page
       x="0"
       y="0"
       width="85"
       height="48.811634"
       id="page2"
       margin="0"
       bleed="0" /></sodipodi:namedview><metadata
     id="metadata872"><rdf:RDF><cc:Work
         rdf:about=""><dc:format>image/svg+xml</dc:format><dc:type
           rdf:resource="http://purl.org/dc/dcmitype/StillImage" /><dc:title /></cc:Work></rdf:RDF></metadata><defs
     id="defs4"><style
       type="text/css"
       id="style6" /></defs><path
     style="fill:#e8aaff;fill-opacity:1;stroke:#202326;stroke-width:0"
     id="path43"
     d="m 24,-0.0941816 h 20 c 2,0 3,1 3,3 V 20.905819 c 0,1 -1,3 -3,3 H 24 c -1,0 -3,-2 -3,-3 V 2.9058184 c 0,-2 2,-3 3,-3 z" /><path
     style="fill:#e8aaff;fill-opacity:1;stroke:#202326;stroke-width:0"
     id="path65"
     d="m 3,25.905819 h 19 c 1,0 3,1 3,2 v 19 c 0,1 -2,2 -3,2 H 3 c -2,0 -3,-1 -3,-2 v -19 c 0,-1 1,-2 3,-2 z" /><path
     style="fill:#e8aaff;fill-opacity:1;stroke:#202326;stroke-width:0"
     id="path67"
     d="m 32,25.905819 h 20 c 1,0 3,1 3,2 v 19 c 0,1 -2,2 -3,2 H 32 c -2,0 -3,-1 -3,-2 v -19 c 0,-1 1,-2 3,-2 z" /><path
     style="fill:#e8aaff;fill-opacity:1;stroke:#202326;stroke-width:0"
     id="path69"
     d="m 62,25.905819 h 20 c 2,0 3,1 3,2 v 19 c 0,1 -1,2 -3,2 H 62 c -2,0 -3,-1 -3,-2 v -19 c 0,-1 1,-2 3,-2 z" /><g
     id="g205"
     transform="matrix(0.774557,0,0,0.77345,-282.661,-131.41149)"><g
   style="font-weight:normal;font-size:18px;font-family:Arial;fill:#2b2828"
   id="text207"
   aria-label="W"><path
     id="path932"
     style="font-weight:normal;font-size:18px;font-family:Arial;fill:#2b2828"
     d="m 403.63867,192 -3.41894,-12.88477 h 1.74902 l 1.95996,8.44629 q 0.31641,1.32715 0.54492,2.63672 0.49219,-2.06543 0.58008,-2.38183 l 2.45215,-8.70118 h 2.05664 l 1.8457,6.52149 q 0.69434,2.42578 1.00196,4.56152 0.24609,-1.22168 0.6416,-2.80371 l 2.02148,-8.2793 h 1.71387 L 413.25391,192 h -1.64356 l -2.71582,-9.81738 q -0.34277,-1.23047 -0.4043,-1.51172 -0.20214,0.88769 -0.37793,1.51172 L 405.37891,192 Z" /></g>
</g><g
     id="g241"
     transform="matrix(0.774557,0,0,0.77345,-302.456,-105.71529)"><g
   style="font-weight:normal;font-size:18px;font-family:Arial;fill:#2b2828"
   id="text243"
   aria-label="A"><path
     id="path959"
     style="font-weight:normal;font-size:18px;font-family:Arial;fill:#2b2828"
     d="m 399.97363,192 4.94824,-12.88477 h 1.83692 L 412.03223,192 h -1.94239 l -1.50293,-3.90234 h -5.38769 L 401.78418,192 Z m 3.71778,-5.29102 h 4.36816 l -1.34473,-3.56836 q -0.61523,-1.62597 -0.91406,-2.67187 -0.24609,1.23926 -0.69433,2.46094 z" /></g>
</g><g
     id="g245"
     transform="matrix(0.774557,0,0,0.77345,-271.774,-105.71529)"><g
   style="font-weight:normal;font-size:18px;font-family:Arial;fill:#2b2828"
   id="text247"
   aria-label="S"><path
     id="path962"
     style="font-weight:normal;font-size:18px;font-family:Arial;fill:#2b2828"
     d="m 400.80859,187.86035 1.6084,-0.14062 q 0.11426,0.96679 0.52735,1.59082 0.42187,0.61523 1.30078,1.00195 0.8789,0.37793 1.97754,0.37793 0.97558,0 1.72265,-0.29004 0.74707,-0.29004 1.10742,-0.79102 0.36914,-0.50976 0.36914,-1.10742 0,-0.60644 -0.35156,-1.05468 -0.35156,-0.45704 -1.16015,-0.76465 -0.51856,-0.20215 -2.29395,-0.62403 -1.77539,-0.43066 -2.4873,-0.80859 -0.92286,-0.4834 -1.37989,-1.19531 -0.44824,-0.72071 -0.44824,-1.6084 0,-0.97559 0.55371,-1.81934 0.55371,-0.85254 1.61719,-1.29199 1.06348,-0.43945 2.36426,-0.43945 1.43261,0 2.52246,0.46582 1.09863,0.45703 1.6875,1.35351 0.58887,0.89649 0.63281,2.03028 l -1.63476,0.12304 q -0.13184,-1.22168 -0.89649,-1.8457 -0.75586,-0.62402 -2.24121,-0.62402 -1.54688,0 -2.25879,0.57129 -0.70312,0.5625 -0.70312,1.3623 0,0.69434 0.50097,1.14258 0.49219,0.44824 2.56641,0.92285 2.08301,0.46582 2.85644,0.81738 1.125,0.51856 1.66114,1.31836 0.53613,0.79102 0.53613,1.82813 0,1.02832 -0.58887,1.94238 -0.58886,0.90527 -1.69629,1.41504 -1.09863,0.50098 -2.47851,0.50098 -1.74903,0 -2.93555,-0.50977 -1.17773,-0.50976 -1.85449,-1.5293 -0.66797,-1.02832 -0.70313,-2.32031 z" /></g>
</g><g
     id="g249"
     transform="matrix(0.774557,0,0,0.77345,-243.072,-105.71529)"><g
   style="font-weight:normal;font-size:18px;font-family:Arial;fill:#2b2828"
   id="text251"
   aria-label="D"><path
     id="path965"
     style="font-weight:normal;font-size:18px;font-family:Arial;fill:#2b2828"
     d="m 401.38867,192 v -12.88477 h 4.43848 q 1.50293,0 2.29394,0.18457 1.10743,0.25489 1.88965,0.92286 1.01953,0.86132 1.52051,2.20605 0.50977,1.33594 0.50977,3.05859 0,1.46778 -0.34278,2.60157 -0.34277,1.13379 -0.8789,1.88086 -0.53614,0.73828 -1.17774,1.16894 -0.63281,0.42188 -1.53808,0.6416 Q 407.20703,192 406.03809,192 Z m 1.70508,-1.52051 h 2.75098 q 1.27441,0 1.99511,-0.2373 0.7295,-0.23731 1.16016,-0.66797 0.60645,-0.60645 0.94043,-1.62598 0.34277,-1.02832 0.34277,-2.4873 0,-2.02149 -0.66797,-3.10254 -0.65918,-1.08985 -1.60839,-1.45899 -0.68555,-0.26367 -2.20606,-0.26367 h -2.70703 z" /></g>
</g></svg>
