<?xml version="1.0" encoding="UTF-8" standalone="no"?>
<!-- Uploaded to: SVG Repo, www.svgrepo.com, Generator: SVG Repo Mixer Tools -->

<svg
   height="781.2583"
   width="816.10559"
   version="1.1"
   id="Capa_1"
   viewBox="0 0 48.905128 46.816904"
   xml:space="preserve"
   sodipodi:docname="star-unfilled.svg"
   inkscape:version="1.4 (86a8ad7, 2024-10-11)"
   xmlns:inkscape="http://www.inkscape.org/namespaces/inkscape"
   xmlns:sodipodi="http://sodipodi.sourceforge.net/DTD/sodipodi-0.dtd"
   xmlns="http://www.w3.org/2000/svg"
   xmlns:svg="http://www.w3.org/2000/svg"><defs
   id="defs1" /><sodipodi:namedview
   id="namedview1"
   pagecolor="#ffffff"
   bordercolor="#000000"
   borderopacity="0.25"
   inkscape:showpageshadow="2"
   inkscape:pageopacity="0.0"
   inkscape:pagecheckerboard="0"
   inkscape:deskcolor="#d1d1d1"
   inkscape:zoom="0.96625"
   inkscape:cx="408.7969"
   inkscape:cy="390.16818"
   inkscape:window-width="1920"
   inkscape:window-height="991"
   inkscape:window-x="-9"
   inkscape:window-y="-9"
   inkscape:window-maximized="1"
   inkscape:current-layer="Capa_1" />
<path
   style="fill:#d9d9d9;stroke:#000000;stroke-opacity:1;fill-opacity:1"
   d="m 26.767041,1.9175411 5.407,10.9559999 c 0.376,0.762 1.103,1.29 1.944,1.412 l 12.091,1.757 c 2.118,0.308 2.963,2.91 1.431,4.403 l -8.749,8.528 c -0.608,0.593 -0.886,1.448 -0.742,2.285 l 2.065,12.042 c 0.362,2.109 -1.852,3.717 -3.746,2.722 l -10.814,-5.685 c -0.752,-0.395 -1.651,-0.395 -2.403,0 l -10.814,5.685 c -1.894,0.996 -4.1079999,-0.613 -3.7459999,-2.722 l 2.0649999,-12.042 c 0.144,-0.837 -0.134,-1.692 -0.742,-2.285 l -8.7489999,-8.528 c -1.53199996,-1.494 -0.68699996,-4.096 1.431,-4.403 l 12.0909999,-1.757 c 0.841,-0.122 1.568,-0.65 1.944,-1.412 l 5.407,-10.9559999 c 0.946,-1.91900004 3.682,-1.91900004 4.629,0 z"
   id="path1" />
</svg>
